<?xml version="1.0" encoding="UTF-8"?>
<svg width="14px" height="14px" viewBox="0 0 14 14" version="1.1" xmlns="http://www.w3.org/2000/svg" xmlns:xlink="http://www.w3.org/1999/xlink">
    <!-- Generator: Sketch 58 (84663) - https://sketch.com -->
    <title>14 x 14 / dark outline</title>
    <desc>Created with Sketch.</desc>
    <defs>
        <rect id="path-1" x="0" y="0" width="14" height="14" rx="3.5"></rect>
        <linearGradient x1="50%" y1="-3.02450737e-14%" x2="50%" y2="100%" id="linearGradient-3">
            <stop stop-color="#757D85" offset="0%"></stop>
            <stop stop-color="#5A6167" offset="100%"></stop>
        </linearGradient>
        <rect id="path-4" x="0" y="0" width="14" height="14" rx="3.5"></rect>
    </defs>
    <g id="14-x-14-/-dark-outline" stroke="none" stroke-width="1" fill="none" fill-rule="evenodd">
        <g id="Icon-Artboard">
            <mask id="mask-2" fill="white">
                <use xlink:href="#path-1"></use>
            </mask>
            <g id="Mask"></g>
            <g mask="url(#mask-2)">
                <g id="BG-style-/-Grey" fill="url(#linearGradient-3)" fill-rule="evenodd">
                    <rect id="BG" x="0" y="0" width="14" height="14"></rect>
                </g>
                <path d="M4.23623047,9.22167969 C4.23623047,10.0337891 4.53701172,10.2894531 5.19873047,10.2894531 L5.67246094,10.2894531 L5.67246094,9.70292969 L5.52958984,9.70292969 C5.22437207,9.70292969 5.13288118,9.5923813 5.13108189,9.18887968 L5.13105469,9.1765625 C5.13105469,8.77050781 5.16113281,8.40957031 5.16113281,7.95087891 C5.16113281,7.37939453 4.98066406,7.16132812 4.6046875,7.07109375 L4.6046875,7.04101562 C4.98066406,6.95078125 5.16113281,6.73271484 5.16113281,6.16123047 C5.16113281,5.71757812 5.13105469,5.33408203 5.13105469,4.93554688 C5.13105469,4.52197266 5.22128906,4.40917969 5.52958984,4.40917969 L5.67246094,4.40917969 L5.67246094,3.82265625 L5.19873047,3.82265625 C4.53701172,3.82265625 4.23623047,4.08583984 4.23623047,4.89042969 C4.23623047,5.41679687 4.31142578,5.71005859 4.31142578,6.17626953 C4.31142578,6.43945312 4.15351562,6.71767578 3.66474609,6.73271484 L3.66474609,7.37939453 C4.15351562,7.39443359 4.31142578,7.67265625 4.31142578,7.93583984 C4.31142578,8.40957031 4.23623047,8.68779297 4.23623047,9.22167969 Z M8.35800782,9.70292969 L8.50087891,9.70292969 C8.81669923,9.70292969 8.89941407,9.59013672 8.89941407,9.1765625 C8.89941407,8.77050781 8.86933594,8.40957031 8.86933594,7.95087891 C8.86933594,7.37939453 9.04980469,7.16132812 9.42578126,7.07109375 L9.42578126,7.04101562 C9.04980469,6.95078125 8.86933594,6.73271484 8.86933594,6.16123047 C8.86933594,5.71757812 8.89941407,5.33408203 8.89941407,4.93554688 C8.89941407,4.52197266 8.81669923,4.40917969 8.50087891,4.40917969 L8.35800782,4.40917969 L8.35800782,3.82265625 L8.83173829,3.82265625 C9.49345704,3.82265625 9.79423829,4.08583984 9.79423829,4.89042969 C9.79423829,5.41679687 9.71904298,5.71005859 9.71904298,6.17626953 C9.71904298,6.43945312 9.87695313,6.71767578 10.3657227,6.73271484 L10.3657227,7.37939453 C9.87695313,7.39443359 9.71904298,7.67265625 9.71904298,7.93583984 C9.71904298,8.40957031 9.79423829,8.68779297 9.79423829,9.22167969 C9.79423829,10.0337891 9.49345704,10.2894531 8.83173829,10.2894531 L8.35800782,10.2894531 L8.35800782,9.70292969 Z" id="{}" fill="#FFFFFF" fill-rule="nonzero"></path>
            </g>
            <mask id="mask-5" fill="white">
                <use xlink:href="#path-4"></use>
            </mask>
            <rect stroke-opacity="0.2" stroke="#000000" x="0.5" y="0.5" width="13" height="13" rx="3.5"></rect>
        </g>
    </g>
</svg>